{"title":"Mechanic Resurrection - 2016 - HDCAM - 800MB - x264 - AAC - Maki","uid":15427173,"size":841276162,"categoryP":"video","categoryS":"movies","magnet":"?xt=urn:btih:1685cc1dded26b19fcb7eb550c077b0041ec1b05&amp;dn=Mechanic+Resurrection+-+2016+-+HDCAM+-+800MB+-+x264+-+AAC+-+Maki&amp;tr=udp%3A%2F%2Ftracker.leechers-paradise.org%3A6969&amp;tr=udp%3A%2F%2Fzer0day.ch%3A1337&amp;tr=udp%3A%2F%2Fopen.demonii.com%3A1337&amp;tr=udp%3A%2F%2Ftracker.coppersurfer.tk%3A6969&amp;tr=udp%3A%2F%2Fexodus.desync.com%3A6969","seeders":11,"leechers":3,"uploader":"makintos13","files":1,"time":1469677048,"description":"Mechanic Resurrection - 2016 - HDCAM - 800MB - x264 - AAC - Makintos13\r\n\r\nScreens:\r\n \nhttps://imgmak.com/aKO\r\n \nhttps://imgmak.com/aKP\r\n \nhttps://imgmak.com/aKY\r\n\r\n \nhttps://imgmak.com/aK0\r\n\r\n \nhttps://imgmak.com/aKA\r\n \nhttps://imgmak.com/aKD\r\n \nhttps://imgmak.com/aKf\r\n \nhttps://imgmak.com/aKE\r\n \nhttps://imgmak.com/aKh\r\n\r\n\r\n\r\nFormat version : Version 4 / Version 2\r\nFile size : 802 MiB\r\nDuration : 1h 34mn\r\nOverall bit rate : 1 193 Kbps\r\n\r\nVideo #1\r\nID : 1\r\nFormat : AVC\r\nFormat/Info : Advanced Video Codec\r\nFormat profile :   \r\nFormat settings, CABAC : Yes\r\nFormat settings, ReFrames : 4 frames\r\nCodec ID : V_MPEG4/ISO/AVC\r\nDuration : 1h 34mn\r\nBit rate : 1 121 Kbps\r\nWidth : 720 pixels\r\nHeight : 320 pixels\r\nDisplay aspect ratio : 2.25:1\r\nFrame rate mode : Constant\r\nFrame rate : 23.876 fps\r\nColor space : YUV\r\nChroma subsampling : 4:2:0\r\nBit depth : 8 bits\r\nScan type : Progressive\r\nBits/(Pixel*Frame) : 0.204\r\nStream size : 754 MiB (94%)\r\nWriting library : x264 core 148 r2638 7599210\r\nDefault : Yes\r\nForced : No\r\n\r\nVideo #2\r\nID : 2\r\nFormat : AVC\r\nFormat/Info : Advanced Video Codec\r\nFormat profile :   \r\nFormat settings, CABAC : Yes\r\nFormat settings, ReFrames : 4 frames\r\nCodec ID : V_MPEG4/ISO/AVC\r\nDuration : 1h 34mn\r\nBit rate : 4 189 bps\r\nNominal bit rate : 1 000 bps\r\nWidth : 720 pixels\r\nHeight : 320 pixels\r\nDisplay aspect ratio : 2.25:1\r\nFrame rate mode : Variable\r\nFrame rate : 23.876 fps\r\nColor space : YUV\r\nChroma subsampling : 4:2:0\r\nBit depth : 8 bits\r\nScan type : Progressive\r\nBits/(Pixel*Frame) : 0.001\r\nStream size : 2.82 MiB (0%)\r\nDefault : No\r\nForced : No\r\nColor range : Limited\r\nColor primaries : BT.601 NTSC\r\nTransfer characteristics : BT.709\r\nMatrix coefficients : BT.601\r\n\r\nAudio\r\nID : 3\r\nFormat : AAC\r\nFormat/Info : Advanced Audio Codec\r\nFormat profile : LC\r\nCodec ID : A_AAC\r\nDuration : 1h 34mn\r\nBit rate : 64.3 Kbps\r\nChannel(s) : 2 channels\r\nChannel positions : Front: L R\r\nSampling rate : 48.0 KHz\r\nFrame rate : 46.875 fps (1024 spf)\r\nCompression mode : Lossy\r\nDelay relative to video : 62ms\r\nStream size : 43.3 MiB (5%)\r\nTitle : Stereo\r\nDefault : Yes\r\nForced : No\r\n\r\nSource : CTRC","torrent":{"xt":"urn:btih:1685cc1dded26b19fcb7eb550c077b0041ec1b05","amp;dn":"Mechanic+Resurrection+-+2016+-+HDCAM+-+800MB+-+x264+-+AAC+-+Maki","amp;tr":["udp%3A%2F%2Ftracker.leechers-paradise.org%3A6969","udp%3A%2F%2Fzer0day.ch%3A1337","udp%3A%2F%2Fopen.demonii.com%3A1337","udp%3A%2F%2Ftracker.coppersurfer.tk%3A6969","udp%3A%2F%2Fexodus.desync.com%3A6969"],"infoHash":"1685cc1dded26b19fcb7eb550c077b0041ec1b05","infoHashBuffer":{"type":"Buffer","data":[22,133,204,29,222,210,107,25,252,183,235,85,12,7,123,0,65,236,27,5]},"announce":[],"urlList":[]}}